<?xml version="1.0" standalone="no"?>
<!DOCTYPE svg PUBLIC "-//W3C//DTD SVG 20010904//EN"
 "http://www.w3.org/TR/2001/REC-SVG-20010904/DTD/svg10.dtd">
<svg version="1.0" xmlns="http://www.w3.org/2000/svg"
 width="512.000000pt" height="512.000000pt" viewBox="0 0 512.000000 512.000000"
 preserveAspectRatio="xMidYMid meet">

<g transform="translate(0.000000,512.000000) scale(0.100000,-0.100000)"
fill="#000000" stroke="none">
<path d="M1589 4762 c-105 -55 -220 -227 -269 -402 -61 -218 -67 -532 -14
-682 12 -35 11 -54 -6 -161 -10 -67 -23 -153 -27 -190 l-8 -68 -56 -3 c-138
-6 -225 -135 -171 -251 18 -40 18 -41 -4 -95 -45 -112 -56 -200 -49 -385 7
-189 -2 -292 -40 -451 -31 -131 -57 -187 -144 -317 -122 -182 -153 -277 -102
-318 52 -42 93 -18 139 83 16 35 39 74 50 88 l21 25 1 -45 c1 -111 47 -218
113 -261 l32 -21 0 -237 c0 -228 7 -298 40 -382 5 -13 -3 -18 -37 -23 -54 -8
-115 -42 -142 -79 -16 -22 -21 -43 -21 -91 0 -54 4 -68 29 -100 16 -21 44 -44
62 -52 40 -17 125 -18 212 -3 108 19 157 83 138 183 -10 51 -52 95 -121 127
-71 32 -75 40 -101 211 -12 75 -15 144 -11 256 3 85 8 156 11 159 3 3 36 -2
73 -11 37 -8 78 -17 91 -18 21 -3 23 -8 27 -86 5 -87 38 -203 75 -264 24 -40
25 -48 4 -48 -9 0 -31 -15 -50 -34 -30 -30 -34 -40 -34 -85 0 -63 18 -101 67
-138 35 -27 41 -28 147 -28 121 1 156 11 195 61 41 52 21 151 -40 196 -47 34
-64 40 -144 47 l-70 6 -36 73 c-41 83 -59 157 -59 245 0 79 16 98 70 86 52
-12 125 5 167 37 41 31 42 49 4 69 -39 20 -77 99 -97 200 -17 88 -30 415 -17
415 5 0 26 -30 47 -68 215 -374 515 -694 772 -821 219 -108 415 -108 629 -2
134 67 247 154 391 303 l120 125 57 -52 c120 -110 251 -143 316 -81 52 50 69
110 97 351 14 124 126 175 338 154 139 -14 179 -5 230 51 46 51 81 162 72 228
-13 97 -74 161 -251 263 -115 65 -150 92 -185 141 -67 92 -124 331 -133 553
-6 142 -15 221 -43 399 -12 75 -14 104 -5 123 39 85 52 332 26 508 -49 345
-225 615 -402 615 -119 0 -244 -137 -495 -542 -61 -98 -111 -178 -112 -178 -1
0 -49 7 -107 16 -163 24 -441 18 -540 -12 -13 -3 -29 16 -62 73 -60 105 -217
341 -287 433 -71 92 -158 176 -205 195 -53 23 -106 18 -166 -13z m162 -48 c74
-37 306 -347 458 -611 30 -51 56 -93 60 -93 3 0 40 8 81 17 105 23 400 23 528
0 50 -9 96 -17 101 -17 5 0 44 57 87 128 297 489 418 623 536 592 50 -14 139
-103 191 -190 47 -82 93 -222 113 -352 23 -146 16 -399 -15 -486 -21 -60 -21
-66 -7 -140 21 -110 34 -218 46 -368 l10 -130 -64 -191 c-102 -301 -168 -415
-274 -471 -31 -16 -108 -44 -171 -61 -168 -47 -232 -85 -280 -171 l-23 -41 48
24 c79 40 184 74 264 86 175 27 276 69 358 149 27 27 60 69 73 93 35 69 33 31
-5 -82 -71 -211 -103 -258 -220 -320 -53 -29 -72 -33 -172 -39 -94 -6 -121
-12 -176 -37 -35 -17 -81 -45 -103 -64 -36 -32 -95 -113 -95 -131 0 -4 21 9
48 29 26 20 76 50 112 67 61 29 72 31 196 33 94 1 143 6 169 18 21 8 40 14 42
12 4 -5 -94 -162 -154 -245 -170 -239 -383 -444 -565 -546 -201 -112 -415
-118 -613 -18 -230 116 -488 378 -694 704 -33 54 -61 100 -61 102 0 3 19 -2
43 -10 27 -10 87 -16 172 -17 124 -2 133 -4 195 -34 36 -18 87 -48 112 -67 55
-43 55 -24 0 49 -73 96 -200 155 -331 155 -91 0 -148 19 -227 75 -58 42 -71
57 -99 119 -33 71 -95 256 -95 279 1 6 9 -4 20 -23 71 -133 199 -210 405 -244
116 -20 172 -36 273 -82 l73 -33 -18 30 c-28 48 -90 106 -138 129 -25 12 -93
35 -152 51 -59 17 -131 41 -160 55 -106 50 -181 176 -284 479 l-61 180 12 155
c6 85 22 217 35 293 23 139 23 139 4 193 -55 155 -40 494 31 698 34 99 93 199
156 263 80 81 129 95 205 57z m2311 -2129 c40 -63 104 -116 226 -185 132 -74
206 -145 218 -206 13 -68 -28 -180 -80 -218 -29 -22 -22 -22 -251 -16 -120 4
-170 -8 -232 -56 -52 -40 -71 -88 -87 -226 -21 -182 -58 -258 -127 -258 -39 0
-137 53 -198 108 l-54 48 81 115 c234 332 391 686 417 944 3 33 8 76 11 95 6
34 6 33 28 -35 12 -38 34 -88 48 -110z m-2465 -1786 c44 -14 73 -53 73 -99 0
-54 -23 -70 -120 -79 -120 -13 -163 4 -189 72 -15 39 -4 76 29 95 33 21 159
27 207 11z m-388 -207 c47 -23 75 -64 74 -108 -2 -69 -52 -94 -191 -94 -79 0
-85 2 -113 29 -38 39 -41 106 -6 146 44 52 158 65 236 27z"/>
<path d="M3493 4498 c-32 -51 -263 -504 -263 -516 0 -5 33 -21 73 -37 151 -59
301 -142 376 -210 34 -31 40 -34 45 -18 18 58 30 187 30 318 1 172 -12 232
-73 360 -72 151 -135 185 -188 103z"/>
<path d="M1666 4490 c-52 -48 -100 -147 -122 -252 -18 -84 -14 -377 6 -484
l12 -62 71 54 c77 58 241 146 346 185 35 13 65 29 68 36 9 24 -221 484 -269
534 -35 39 -60 36 -112 -11z"/>
<path d="M2564 3609 c-63 -31 -80 -168 -45 -349 23 -117 100 -411 111 -423 7
-8 80 278 101 393 6 36 12 112 12 170 1 86 -3 113 -20 152 -12 25 -30 51 -41
57 -25 13 -90 13 -118 0z"/>
<path d="M2044 3521 c-128 -78 -90 -170 140 -340 52 -39 97 -71 99 -71 1 0 -1
42 -5 93 -9 95 -37 217 -63 267 -35 67 -109 89 -171 51z"/>
<path d="M3041 3518 c-50 -46 -91 -175 -106 -337 -7 -85 -18 -86 110 10 188
140 237 224 171 297 -49 55 -133 70 -175 30z"/>
<path d="M1545 3060 c-9 -15 13 -113 46 -204 41 -114 98 -204 173 -273 100
-95 198 -122 432 -123 121 0 165 -10 205 -46 28 -27 57 -31 65 -9 10 26 -106
214 -184 297 -91 97 -178 133 -342 142 -64 3 -124 12 -154 23 -61 22 -145 97
-177 157 -23 44 -50 59 -64 36z"/>
<path d="M3636 3022 c-37 -74 -116 -139 -200 -164 -17 -5 -85 -12 -151 -17
-154 -10 -210 -35 -311 -135 -72 -73 -198 -265 -192 -296 5 -25 39 -23 67 4
38 37 79 46 206 46 140 1 236 13 311 41 82 31 185 135 241 244 45 89 90 221
95 281 3 34 0 39 -19 42 -18 3 -27 -7 -47 -46z"/>
<path d="M2550 1999 c-93 -37 -93 -109 0 -197 l50 -48 0 -171 c0 -139 3 -173
15 -183 8 -7 22 -10 30 -6 13 4 15 34 15 183 l0 178 36 24 c108 74 120 176 24
215 -45 18 -131 20 -170 5z"/>
</g>
</svg>
